<svg xmlns="http://www.w3.org/2000/svg" width="192" height="192" viewBox="0 0 192 192">
  <rect width="192" height="192" rx="40" fill="#10B981"/>
  <path d="M96 48c-13.3 0-24 10.7-24 24 0 9.8 5.9 18.2 14.4 21.8L80 132h32l-6.4-38.2c8.5-3.6 14.4-12 14.4-21.8 0-13.3-10.7-24-24-24z" fill="none" stroke="white" stroke-width="6" stroke-linecap="round" stroke-linejoin="round"/>
  <path d="M76 132v8c0 6.6 5.4 12 12 12h16c6.6 0 12-5.4 12-12v-8" fill="none" stroke="white" stroke-width="6" stroke-linecap="round"/>
  <path d="M96 36v-4M60 52l-4-4M132 52l4-4" fill="none" stroke="white" stroke-width="5" stroke-linecap="round"/>
</svg>
